#!OML:ASF E:/inclinewalkrobotboard/Project1/Captureday1/Session1/subject1.ASF
:FULLY-SPECIFIED
:DEGREES
76
root 0 0 0 -0.9963364111535853 -2.7380684855496256 -2.461084389039141
lowerback 9.386506890923457 0.34868457233479055 0.6632204517556115
upperback -0.027220337784489956 0.6805243953537393 1.7409529940005195
thorax -5.1894334721088065 0.3536972232165046 1.361723619038214
lowerneck -16.464885605923083 -2.9721180872589015 -1.9392450743515255
upperneck 19.885800850126948 -3.806676075591549 0.6932521321668168
head 9.052023608579452 -1.8489553757836772 0.07929055538244201
rclavicle -6.637010665166124E-16 -4.802162815675804E-16
rhumerus -23.890597845403498 -18.857957031773758 -74.98731204153236
rradius 27.040255459955542
rwrist 6.408847210410251
rhand -15.860907195618914 21.011762065241435
rfingers 7.125020000000035
rthumb 10.313903995810053 -8.474212760528095
lclavicle -6.464973551173318E-16 -3.2054875045137327E-16
lhumerus -29.522110294777484 1.4448709627081868 77.84499520079902
lradius 28.792867706627625
lwrist 3.075599688750156
lhand -23.664934532870053 23.31901856968712
lfingers 7.125020000000037
lthumb 2.747301101334166 52.979038626451135
rfemur -3.1603349273602532 -7.412302244750677 14.690478086183887
rtibia 39.1003382844497
rfoot -8.872366960357052 -8.093082279256523
rtoes 6.25210154430485
lfemur -14.125231647293809 -0.5458139343021813 -20.760594756331287
ltibia 34.28179590957304
lfoot -9.142100732257466 -0.48475440323180763
ltoes -2.0812550106645897
77
root 0 0 0 -1.1517716961356648 -2.6675032068378783 -2.429026826713935
lowerback 9.467826340299851 0.34683656323814116 0.6774246257065397
upperback 0.026911387440604173 0.6793162737148323 1.7364490342480625
thorax -5.177189734047969 0.35244275652247486 1.3477320530047896
lowerneck -16.49894912785537 -2.9880286874079673 -1.9489328983494292
upperneck 19.86083484297519 -3.823829134727499 0.6771849108283132
head 9.047658759818335 -1.8578726633746006 0.07424466737143276
rclavicle -6.649224573591143E-16 -4.805678957902005E-16
rhumerus -24.1109021772074 -18.835208345684762 -75.13297916416118
rradius 27.035141611881002
rwrist 6.303143727504029
rhand -15.958649247671381 21.091508991963856
rfingers 7.1250200000000365
rthumb 10.219606022720187 -8.4056066579251
lclavicle -6.52684981776118E-16 -3.1407091336598786E-16
lhumerus -29.66835622767539 1.4160229832277702 78.0714132614097
lradius 28.75286389211813
lwrist 3.1785882025294594
lhand -23.830310022198685 23.316227545424034
lfingers 7.12502000000004
lthumb 2.587264028642867 52.99464734987062
rfemur -3.5766156877202064 -6.9000200568276995 15.188500819264846
rtibia 39.06975680138454
rfoot -8.81783128646077 -8.026942247521475
rtoes 6.1518690267331095
lfemur -13.869866669886925 -0.6193621820007191 -20.70351764882455
ltibia 34.19040982621124
lfoot -9.057826029470576 -0.6089067736398093
ltoes -2.180373980775167
78
root 0 0 0 -1.0822625338141236 -2.7054955537966485 -2.4474083809905354
lowerback 9.43307262532942 0.3487405191321844 0.6727819571569165
upperback 0.0031167064918484755 0.681258143336959 1.7374769804770462
thorax -5.182918201851857 0.3536651990284853 1.3523168356784736
lowerneck -16.485044822074176 -2.9798319256170176 -1.943587196409768
upperneck 19.87022258385383 -3.8153166857907457 0.6845515171090133
head 9.048993766544665 -1.853037556280479 0.0764888711318572
rclavicle -6.648830644608822E-16 -4.806382533469007E-16
rhumerus -24.053552193991244 -18.841704095930204 -75.09337945007988
rradius 27.03616080540053
rwrist 6.332824910866474
rhand -15.93344988976707 21.070846006799606
rfingers 7.125020000000036
rthumb 10.244431966439555 -8.423781102788917
lclavicle -6.524378269133197E-16 -3.1623374311457997E-16
lhumerus -29.64590614475523 1.4213347703510664 78.03278550515992
lradius 28.758667034750598
lwrist 3.161726156657293
lhand -23.803662196899687 23.31718182450975
lfingers 7.125020000000039
lthumb 2.612596038496534 52.99296720935647
rfemur -3.341818971478233 -7.1809931700478415 14.918760932744377
rtibia 39.06987382981066
rfoot -8.851578841932112 -8.06418370901718
rtoes 6.202011108953233
lfemur -13.92635531381724 -0.6038965162296517 -20.715888491415654
ltibia 34.209307558391544
lfoot -9.076628496348754 -0.5809692008613112
ltoes -2.157791090021041
79
root 0 0 0 -1.0242374528046447 -2.7407930606359887 -2.4635123810760726
lowerback 9.40502319545783 0.3508965401496671 0.6694149096385615
upperback -0.01619038737782219 0.6833994877968627 1.7380168418264
thorax -5.187913628162856 0.3549849818833831 1.3554671251016628
lowerneck -16.474210749896553 -2.972215431332816 -1.9386277840041166
upperneck 19.876224570757522 -3.8070411149442953 0.691036560220498
head 9.04959214677464 -1.8482471743251616 0.07852386208336026
rclavicle -6.637483092994544E-16 -4.787041956251991E-16
rhumerus -23.945218416431416 -18.85162599743623 -75.0296955401119
rradius 27.03723356451846
rwrist 6.385554953252775
rhand -15.887129181037611 21.03287554333813
rfingers 7.125020000000035
rthumb 10.28860028775894 -8.45591823220224
lclavicle -6.516212567183461E-16 -3.18210872559258E-16
lhumerus -29.60589851914839 1.4315989804517777 77.96641418751311
lradius 28.76789341892288
lwrist 3.1291703062880654
lhand -23.758297531015135 23.319468972491737
lfingers 7.125020000000039
lthumb 2.6564319892273467 52.99018361611621
rfemur -3.1023633684847454 -7.467961287394459 14.638195222039528
rtibia 39.07703691452938
rfoot -8.883824032724057 -8.101585987633221
rtoes 6.255282965385533
lfemur -14.034530708645114 -0.5721303069740706 -20.739637291038953
ltibia 34.25000973375849
lfoot -9.111482049822285 -0.529073054236008
ltoes -2.115911286491846
80
root 0 0 0 -0.9770517534245045 -2.766336393484382 -2.475605420650804
lowerback 9.381520510475092 0.3521471413452901 0.6662315697428096
upperback -0.03223279496599396 0.684679190514471 1.7388672368947096
thorax -5.191775949998222 0.35577901371777054 1.3585672326017728
lowerneck -16.464768754327984 -2.9666712376764544 -1.9350662245958783
upperneck 19.882479819002118 -3.801034610733538 0.696015257596724
head 9.05056787536522 -1.844938512491617 0.08006390943810449
rclavicle -6.623780557036291E-16 -4.795504219066749E-16
rhumerus -23.865598303401256 -18.85956404038848 -74.98174834613022
rradius 27.038950038998323
rwrist 6.422065638044593
rhand -15.854175846838439 21.005634739441344
rfingers 7.125020000000034
rthumb 10.319998444057967 -8.479012771431771
lclavicle -6.510711503748933E-16 -3.199588526991286E-16
lhumerus -29.57293929648749 1.4400808360002522 77.91235856474583
lradius 28.775716548473078
lwrist 3.1028390130056405
lhand -23.72207989410478 23.321295846395753
lfingers 7.125020000000038
lthumb 2.6916428577868245 52.98794328952658
rfemur -2.879798963381546 -7.7341804936909995 14.37953908119853
rtibia 39.08143437564477
rfoot -8.914877527671988 -8.136229493609438
rtoes 6.303636430247554
lfemur -14.116014957431666 -0.5486756856708652 -20.758108007496965
ltibia 34.27816332900764
lfoot -9.139576601448624 -0.48949029148616674
ltoes -2.084678984087107
81
root 0 0 0 -0.94642913657718 -2.7823870702236295 -2.4832363434863574
lowerback 9.366153352384089 0.35288464849610324 0.6641032100026862
upperback -0.0426672117494622 0.6854504307385916 1.7394712574454687
thorax -5.19421811190943 0.356266125408732 1.3606628458888497
lowerneck -16.4585641368327 -2.9631922621749474 -1.9328261249150995
upperneck 19.886716870306532 -3.7972312988482564 0.6991793860293631
head 9.051269119258054 -1.842882574184077 0.08104351249611963
rclavicle -6.614799217614898E-16 -4.799919159733409E-16
rhumerus -23.80656202114173 -18.865374966189194 -74.94649855128019
rradius 27.040119525494728
rwrist 6.449508002663439
rhand -15.829683760726068 20.985396970736602
rfingers 7.125020000000034
rthumb 10.34332542844804 -8.496161032525691
lclavicle -6.506861186988535E-16 -3.212788741093922E-16
lhumerus -29.54838054860773 1.446634118922078 77.87156207967327
lradius 28.781428110423857
lwrist 3.082752104503532
lhand -23.69488446599077 23.322743542746863
lfingers 7.125020000000037
lthumb 2.7180332912739864 52.986357105481986
rfemur -2.7069507496814538 -7.9409344292987925 14.17851354880105
rtibia 39.08495159911321
rfoot -8.938900191039068 -8.16317333489304
rtoes 6.341276311928397
lfemur -14.17611630662978 -0.5313301459223272 -20.771663932529215
ltibia 34.299207327842375
lfoot -9.160114971075666 -0.4603591004250269
ltoes -2.0616511979696295
82
root 0 0 0 -1.1230825066206158 -2.6956554463796287 -2.443251372271008
lowerback 9.45684176230435 0.3496912154047961 0.6786004322756964
upperback 0.01826045475659832 0.682719349197827 1.7352122870489701
thorax -5.180024959292377 0.3541891828830291 1.3464187678788915
lowerneck -16.495913453317204 -2.9824545607221724 -1.9448283795952475
upperneck 19.86052002071517 -3.81795089219122 0.6806478241679943
head 9.04697755027266 -1.8539946356880734 0.07525373917112865
rclavicle -6.630240526022014E-16 -4.804127358443369E-16
rhumerus -24.038194620855315 -18.841668913144108 -75.09728897835073
rradius 27.035073322040176
rwrist 6.338348688228894
rhand -15.93151079604717 21.0686128012282
rfingers 7.125020000000036
rthumb 10.245205342663493 -8.424682817053357
lclavicle -6.563816265895057E-16 -3.144261038863177E-16
lhumerus -29.69646097923902 1.4162231772294023 78.10349676151446
lradius 28.74166854861292
lwrist 3.1891726019547555
lhand -23.862415144767297 23.31910539689815
lfingers 7.12502000000004
lthumb 2.555957541552843 53.00133578059435
rfemur -3.205559150794855 -7.331477729232006 14.771086573978536
rtibia 39.054119243285015
rfoot -8.87294038211613 -8.084266549603509
rtoes 6.2238840380796
lfemur -13.90048127824084 -0.6106617497336178 -20.71009213633309
ltibia 34.20095443708871
lfoot -9.068800677787117 -0.5942936054308987
ltoes -2.1685945022981077
83
root 0 0 0 -1.0624236781033218 -2.726473481603861 -2.4580580384986757
lowerback 9.425882482304264 0.3509588986150556 0.673949700080263
upperback -0.0027335576708438225 0.6839161205451967 1.7364069263263144
thorax -5.1849407218115395 0.35501864371811165 1.351029171171651
lowerneck -16.483275057810836 -2.9757211401758084 -1.9405190147817102
upperneck 19.869523071193072 -3.8110016309248054 0.6869892651185587
head 9.048378244445253 -1.8501358152607126 0.0771914862423353
rclavicle -6.631595067144948E-16 -4.805105590962216E-16
rhumerus -23.986546811152984 -18.847694459789913 -75.06011663438753
rradius 27.036147341796656
rwrist 6.365266835279403
rhand -15.908292708270455 21.04964341515838
rfingers 7.125020000000036
rthumb 10.26818154055434 -8.441465122368523
lclavicle -6.558185152376531E-16 -3.1644674885605095E-16
lhumerus -29.673696612632476 1.4209205646336143 78.06589773636867
lradius 28.747975733682136
lwrist 3.1732868594041204
lhand -23.835470676523084 23.31961074961443
lfingers 7.12502000000004
lthumb 2.5816103318132875 52.999159123112754
rfemur -3.014090562798714 -7.561451481829607 14.550976423876293
rtibia 39.05440169907848
rfoot -8.900637493231185 -8.114807629158804
rtoes 6.265094281845833
lfemur -13.948592577617255 -0.597580539967808 -20.72061035928307
ltibia 34.21708119224975
lfoot -9.084610991682046 -0.570402521934799
ltoes -2.149271536471373
